<svg width="18" height="18" viewBox="0 0 18 18" fill="none" xmlns="http://www.w3.org/2000/svg">
<path d="M16.7299 14.7283L16.7299 14.7284C17.1448 15.7094 17.3657 16.7483 17.388 17.8167L17.388 17.8171C17.3883 17.8279 17.3864 17.8386 17.3824 17.8487C17.3785 17.8588 17.3726 17.8679 17.3651 17.8757C17.3575 17.8834 17.3486 17.8895 17.3387 17.8937C17.3288 17.8979 17.3181 17.9 17.3074 17.9H17.3074H15.9529C15.9077 17.9 15.8733 17.8663 15.8723 17.8214L15.8723 17.821C15.8264 16.0497 15.1162 14.3904 13.861 13.1331C12.5623 11.8322 10.8369 11.1161 8.99987 11.1161C7.1628 11.1161 5.43747 11.8322 4.13874 13.1331C2.88355 14.3904 2.1733 16.0497 2.12749 17.821L2.12748 17.8213C2.12647 17.8649 2.09118 17.9 2.04686 17.9H0.692373H0.692341C0.681607 17.9 0.670981 17.8979 0.661088 17.8937C0.651181 17.8895 0.642204 17.8834 0.634685 17.8757C0.627165 17.8679 0.621255 17.8588 0.617313 17.8487C0.613369 17.8386 0.611474 17.8279 0.611746 17.8171L0.611757 17.8165C0.632238 16.7552 0.855618 15.7077 1.2698 14.7307L1.26985 14.7306C1.6915 13.7325 2.30211 12.8257 3.06795 12.0602L3.06813 12.06C3.83784 11.2867 4.7345 10.6813 5.73386 10.2589L5.73394 10.2591L5.73927 10.2565C5.73957 10.2564 5.74074 10.2559 5.74364 10.2548C5.7475 10.2533 5.75686 10.2499 5.7668 10.2449L5.914 10.1712L5.78073 10.0746C4.39917 9.07275 3.50134 7.44478 3.50134 5.60804C3.50134 2.56512 5.96252 0.1 8.99987 0.1C12.0372 0.1 14.4984 2.56512 14.4984 5.60804C14.4984 7.4448 13.6006 9.07271 12.2191 10.0722L12.0856 10.1689L12.2329 10.2427C12.2423 10.2474 12.2511 10.2507 12.2554 10.2523L12.2561 10.2525C12.2582 10.2533 12.2594 10.2538 12.26 10.254L12.2599 10.2542L12.2658 10.2566C13.2621 10.679 14.1674 11.2906 14.9316 12.0578L14.9319 12.058C15.6984 12.8229 16.309 13.7298 16.7299 14.7283ZM6.18401 8.42844C6.93641 9.18212 7.93709 9.59749 8.99987 9.59749C10.0627 9.59749 11.0633 9.18212 11.8157 8.42844C12.5681 7.67477 12.9827 6.67247 12.9827 5.60804C12.9827 4.54361 12.5681 3.54131 11.8157 2.78764C11.0633 2.03396 10.0627 1.61859 8.99987 1.61859C7.93709 1.61859 6.93641 2.03396 6.18401 2.78764C5.43162 3.54131 5.01702 4.54361 5.01702 5.60804C5.01702 6.67247 5.43162 7.67477 6.18401 8.42844Z" fill="#E2132A" stroke="#FCFAF8" stroke-width="0.2"/>
</svg>
