<svg width="35" height="22" viewBox="0 0 35 22" fill="none" xmlns="http://www.w3.org/2000/svg">
<path d="M4.5 7V16" stroke="white" stroke-width="2"/>
<path d="M9 11.5L0 11.5" stroke="white" stroke-width="2"/>
<path d="M13 1H15.2222L18.5556 13.2222H30.7778L33 4.33333H19.6667" stroke="white" stroke-width="1.62792" stroke-linecap="round"/>
<path d="M19.6671 13.2227H17.4449C17.153 13.2226 16.8641 13.2801 16.5945 13.3918C16.3248 13.5035 16.0799 13.6671 15.8735 13.8735C15.6671 14.0799 15.5035 14.3248 15.3918 14.5945C15.2801 14.8641 15.2226 15.153 15.2227 15.4449C15.2227 16.0342 15.4568 16.5995 15.8735 17.0162C16.2903 17.433 16.8555 17.6671 17.4449 17.6671H30.7782M18.0004 21.0004C18.1478 21.0004 18.2891 20.9419 18.3933 20.8377C18.4975 20.7335 18.556 20.5922 18.556 20.4449C18.556 20.2975 18.4975 20.1562 18.3933 20.052C18.2891 19.9479 18.1478 19.8893 18.0004 19.8893C17.8531 19.8893 17.7118 19.9479 17.6076 20.052C17.5034 20.1562 17.4449 20.2975 17.4449 20.4449C17.4449 20.5922 17.5034 20.7335 17.6076 20.8377C17.7118 20.9419 17.8531 21.0004 18.0004 21.0004ZM29.1115 21.0004C29.1845 21.0004 29.2568 20.986 29.3242 20.9581C29.3916 20.9302 29.4528 20.8893 29.5044 20.8377C29.556 20.7861 29.5969 20.7248 29.6248 20.6574C29.6527 20.59 29.6671 20.5177 29.6671 20.4448C29.6671 20.3718 29.6527 20.2996 29.6248 20.2321C29.5969 20.1647 29.5559 20.1035 29.5043 20.0519C29.4527 20.0003 29.3915 19.9594 29.3241 19.9315C29.2566 19.9036 29.1844 19.8892 29.1114 19.8892C28.9641 19.8892 28.8228 19.9478 28.7186 20.052C28.6144 20.1562 28.5559 20.2975 28.5559 20.4449C28.5559 20.5922 28.6144 20.7336 28.7187 20.8377C28.8229 20.9419 28.9642 21.0004 29.1115 21.0004Z" stroke="white" stroke-width="1.62792" stroke-linecap="round" stroke-linejoin="round"/>
</svg>
