<svg width="18" height="18" viewBox="0 0 18 18" fill="none" xmlns="http://www.w3.org/2000/svg">
<path d="M17.8452 4.34175C17.7414 3.94594 17.5813 3.56625 17.3695 3.21376C17.166 2.84707 16.9058 2.51311 16.5981 2.22362C16.1519 1.79014 15.6236 1.44534 15.0425 1.20843C13.8727 0.74042 12.561 0.74042 11.3913 1.20843C10.842 1.43508 10.3374 1.75315 9.89994 2.14842L9.83566 2.22362L9 3.03829L8.16433 2.22362L8.10005 2.14842C7.66262 1.75315 7.15798 1.43508 6.60872 1.20843C5.43899 0.74042 4.12724 0.74042 2.95752 1.20843C2.37639 1.44534 1.84805 1.79014 1.4019 2.22362C0.791693 2.80245 0.359731 3.53614 0.154838 4.34175C0.0458356 4.75087 -0.00605772 5.17244 0.000561921 5.59508C0.000561921 5.99239 0.0519873 6.38844 0.154838 6.77321C0.262617 7.1618 0.418012 7.53632 0.617666 7.88868C0.833286 8.2509 1.09697 8.58381 1.4019 8.87881L9 16.286L16.5981 8.87881C16.9028 8.58678 17.1638 8.25214 17.3695 7.88868C17.787 7.19321 18.0046 6.40091 17.9994 5.59508C18.0061 5.17244 17.9542 4.75086 17.8452 4.34175ZM16.5595 6.38468C16.4055 6.95735 16.0996 7.4804 15.6724 7.90121L8.97428 14.4185L2.27613 7.90121C2.05786 7.68691 1.86784 7.44693 1.71045 7.18681C1.56236 6.92948 1.44585 6.65604 1.36333 6.37215C1.29746 6.08829 1.26298 5.79837 1.26048 5.50735C1.26223 5.20801 1.2967 4.9097 1.36333 4.61749C1.44343 4.33278 1.56006 4.05906 1.71045 3.80282C1.86473 3.53962 2.055 3.30149 2.27613 3.08842C2.60641 2.77076 2.99441 2.51576 3.42035 2.33642C4.27865 2.00169 5.23616 2.00169 6.09446 2.33642C6.51872 2.50813 6.90184 2.76005 7.22582 3.07589L8.97428 4.79295L10.7227 3.07589C11.0465 2.75949 11.4309 2.50824 11.8541 2.33642C12.7124 2.00169 13.6699 2.00169 14.5282 2.33642C14.9538 2.51565 15.342 2.77133 15.6724 3.08842C15.8961 3.29522 16.0838 3.53586 16.2253 3.80282C16.523 4.31476 16.6782 4.89377 16.6752 5.48228C16.6927 5.78512 16.6668 6.08885 16.5981 6.38468H16.5595Z" fill="#E2132A"/>
</svg>
