<svg width="20" height="20" viewBox="0 0 20 20" fill="none" xmlns="http://www.w3.org/2000/svg">
<path d="M1 0.3C0.613401 0.3 0.3 0.613401 0.3 1C0.3 1.3866 0.613401 1.7 1 1.7V0.3ZM2.99438 1L3.66985 0.816298L3.52943 0.3H2.99438V1ZM5.98595 11.9999L5.31049 12.1836L5.4509 12.6999H5.98595V11.9999ZM16.955 11.9999V12.6999H17.4745L17.625 12.2027L16.955 11.9999ZM18.9494 3.99998V3.29998V3.99998ZM6.98314 3.29998C6.59654 3.29998 6.28314 3.61338 6.28314 3.99998C6.28314 4.38658 6.59654 4.69998 6.98314 4.69998V3.29998ZM1 1.7H2.99438V0.3H1V1.7ZM2.31892 1.1837L5.31049 12.1836L6.66142 11.8162L3.66985 0.816298L2.31892 1.1837ZM5.98595 12.6999H16.955V11.2999H5.98595V12.6999ZM16.955 11.9999C17.625 12.2027 17.625 12.2027 17.6251 12.2026C17.6251 12.2025 17.6251 12.2024 17.6252 12.2023C17.6252 12.202 17.6253 12.2016 17.6255 12.2011C17.6258 12.2001 17.6263 12.1986 17.6269 12.1967C17.628 12.1927 17.6298 12.1869 17.6321 12.1793C17.6367 12.1639 17.6436 12.1413 17.6524 12.1118C17.6702 12.0528 17.6961 11.9665 17.729 11.8566C17.7946 11.637 17.8878 11.3235 17.9984 10.9473C18.2193 10.1952 18.5099 9.19123 18.7873 8.18619C19.0639 7.18385 19.3305 6.16996 19.5014 5.40206C19.5859 5.02233 19.6521 4.68066 19.6818 4.42421C19.6957 4.30427 19.7074 4.15742 19.6941 4.02159C19.6882 3.9614 19.6718 3.83213 19.601 3.69739C19.5173 3.53808 19.3075 3.29998 18.9494 3.29998V4.69998C18.618 4.69998 18.4294 4.4775 18.3616 4.34846C18.3067 4.24399 18.3009 4.15965 18.3008 4.15805C18.299 4.1394 18.3025 4.16443 18.2911 4.26324C18.2701 4.44429 18.2172 4.72761 18.1348 5.09788C17.9719 5.82997 17.7131 6.81605 17.4377 7.8137C17.1631 8.80864 16.8749 9.80464 16.6552 10.5526C16.5453 10.9264 16.4527 11.2378 16.3876 11.4557C16.355 11.5646 16.3294 11.6501 16.3118 11.7083C16.3031 11.7375 16.2964 11.7597 16.2918 11.7747C16.2896 11.7822 16.2879 11.7878 16.2867 11.7916C16.2862 11.7934 16.2858 11.7948 16.2855 11.7958C16.2853 11.7962 16.2852 11.7966 16.2852 11.7968C16.2851 11.7969 16.2851 11.797 16.2851 11.797C16.2851 11.7971 16.2851 11.7971 16.955 11.9999ZM18.9494 3.29998C17.1287 3.29998 14.1399 3.29998 11.6018 3.29998C10.3386 3.29998 9.17359 3.29998 8.34119 3.29998C7.93697 3.29998 7.56832 3.29998 7.34808 3.29998C7.27417 3.29998 7.33556 3.29998 7.26498 3.29998C7.25201 3.29998 7.20154 3.29998 7.19199 3.29998C7.16856 3.29998 7.08671 3.29998 7.07755 3.29998C7.06982 3.29998 7.06254 3.29998 7.05573 3.29998C7.05403 3.29998 7.05235 3.29998 7.05071 3.29998C7.04906 3.29998 7.04745 3.29998 7.04586 3.29998C7.04154 3.29998 7.04078 3.29998 7.0367 3.29998C7.03292 3.29998 7.03177 3.29998 7.02824 3.29998C7.0278 3.29998 7.02069 3.29998 7.02049 3.29998C6.9875 3.29998 7.0462 3.29998 7.01345 3.29998C6.98682 3.29998 7.03354 3.29998 7.00714 3.29998C7.00318 3.29998 6.99969 3.29998 6.9967 3.29998C6.99312 3.29998 6.99591 3.29998 6.99258 3.29998C6.99099 3.29998 6.99053 3.29998 6.98919 3.29998C6.98447 3.29998 6.98838 3.29998 6.98466 3.29998C6.98441 3.29998 6.98419 3.29998 6.984 3.29998C6.98381 3.29998 6.98365 3.29998 6.98352 3.29998C6.9834 3.29998 6.9833 3.29998 6.98324 3.29998C6.98317 3.29998 6.98314 3.29998 6.98314 3.99998C6.98314 4.69998 6.98317 4.69998 6.98324 4.69998C6.9833 4.69998 6.9834 4.69998 6.98352 4.69998C6.98365 4.69998 6.98381 4.69998 6.984 4.69998C6.98419 4.69998 6.98441 4.69998 6.98466 4.69998C6.98838 4.69998 6.98447 4.69998 6.98919 4.69998C6.99933 4.69998 6.98557 4.69998 6.9967 4.69998C7.01596 4.69998 6.9869 4.69998 7.00714 4.69998C7.02301 4.69998 7.04661 4.69998 7.07755 4.69998C7.08671 4.69998 7.16856 4.69998 7.19199 4.69998C7.20154 4.69998 7.25201 4.69998 7.26498 4.69998C7.33556 4.69998 7.27417 4.69998 7.34808 4.69998C7.56832 4.69998 7.93697 4.69998 8.34119 4.69998C9.18737 4.69998 10.3248 4.69998 11.6018 4.69998C14.1399 4.69998 17.1287 4.69998 18.9494 4.69998V3.29998Z" fill="#E2132A"/>
<path d="M6.9829 12H4.98852C4.72661 12 4.46726 12.0517 4.22529 12.1522C3.98331 12.2527 3.76345 12.4 3.57825 12.5858C3.39305 12.7715 3.24615 12.992 3.14593 13.2346C3.0457 13.4773 2.99413 13.7373 2.99414 14C2.99414 14.5304 3.20426 15.0391 3.57828 15.4142C3.9523 15.7893 4.45958 16 4.98852 16H16.9548M5.48712 18.9999C5.61935 18.9999 5.74617 18.9473 5.83968 18.8535C5.93318 18.7597 5.98571 18.6326 5.98571 18.4999C5.98571 18.3673 5.93318 18.2402 5.83968 18.1464C5.74617 18.0526 5.61935 18 5.48712 18C5.35488 18 5.22806 18.0526 5.13456 18.1464C5.04105 18.2402 4.98852 18.3673 4.98852 18.4999C4.98852 18.6326 5.04105 18.7597 5.13456 18.8535C5.22806 18.9473 5.35488 18.9999 5.48712 18.9999ZM15.459 18.9999C15.5245 18.9999 15.5893 18.987 15.6498 18.9619C15.7103 18.9367 15.7653 18.8999 15.8116 18.8534C15.8579 18.807 15.8946 18.7519 15.9197 18.6912C15.9447 18.6305 15.9576 18.5655 15.9576 18.4998C15.9576 18.4342 15.9447 18.3692 15.9196 18.3085C15.8946 18.2478 15.8578 18.1927 15.8115 18.1463C15.7652 18.0998 15.7102 18.063 15.6497 18.0379C15.5892 18.0128 15.5244 17.9998 15.4589 17.9999C15.3267 17.9999 15.1998 18.0526 15.1063 18.1463C15.0128 18.2401 14.9603 18.3673 14.9603 18.4999C14.9603 18.6326 15.0129 18.7598 15.1064 18.8535C15.1999 18.9473 15.3268 19 15.459 18.9999Z" stroke="#E2132A" stroke-width="1.4" stroke-linecap="round" stroke-linejoin="round"/>
</svg>
