<svg width="21" height="18" viewBox="0 0 21 18" fill="none" xmlns="http://www.w3.org/2000/svg">
<path d="M20.8193 4.06505C20.6983 3.60327 20.5115 3.1603 20.2644 2.74906C20.027 2.32125 19.7235 1.93164 19.3644 1.5939C18.8439 1.08817 18.2275 0.68591 17.5496 0.409506C16.1849 -0.136502 14.6545 -0.136502 13.2898 0.409506C12.649 0.673931 12.0603 1.04502 11.5499 1.50617L11.4749 1.5939L10.5 2.54435L9.52506 1.5939L9.45006 1.50617C8.93972 1.04502 8.35098 0.673931 7.71017 0.409506C6.34549 -0.136502 4.81512 -0.136502 3.45044 0.409506C2.77246 0.68591 2.15606 1.08817 1.63555 1.5939C0.923642 2.2692 0.419686 3.12517 0.180644 4.06505C0.0534748 4.54235 -0.00706734 5.03419 0.000655575 5.52727C0.000655575 5.9908 0.0606518 6.45286 0.180644 6.90176C0.306387 7.35511 0.487681 7.79205 0.72061 8.20313C0.972167 8.62572 1.2798 9.01412 1.63555 9.35828L10.5 18L19.3644 9.35828C19.7199 9.01759 20.0244 8.62718 20.2644 8.20313C20.7515 7.39176 21.0054 6.4674 20.9993 5.52727C21.0071 5.03419 20.9466 4.54234 20.8193 4.06505ZM19.3194 6.44847C19.1398 7.11658 18.7828 7.7268 18.2845 8.21775L10.47 15.8213L2.65549 8.21775C2.40084 7.96774 2.17914 7.68776 1.99553 7.38429C1.82275 7.08406 1.68682 6.76506 1.59056 6.43385C1.5137 6.10268 1.47347 5.76444 1.47056 5.42492C1.4726 5.07568 1.51282 4.72766 1.59056 4.38674C1.684 4.05458 1.82007 3.73525 1.99553 3.4363C2.17552 3.12923 2.3975 2.85141 2.65549 2.60283C3.04081 2.23223 3.49348 1.93472 3.9904 1.7255C4.99176 1.33498 6.10885 1.33498 7.11021 1.7255C7.60518 1.92583 8.05215 2.21973 8.43013 2.58821L10.47 4.59145L12.5099 2.58821C12.8876 2.21908 13.3361 1.92595 13.8298 1.7255C14.8311 1.33498 15.9482 1.33498 16.9496 1.7255C17.4461 1.9346 17.899 2.23289 18.2845 2.60283C18.5455 2.8441 18.7645 3.12485 18.9295 3.4363C19.2769 4.03356 19.4579 4.70907 19.4544 5.39567C19.4748 5.74898 19.4445 6.10333 19.3644 6.44847H19.3194Z" fill="#BDBDBD"/>
</svg>
