<svg width="19" height="19" viewBox="0 0 19 19" fill="none" xmlns="http://www.w3.org/2000/svg">
<path d="M19 18.0063L13.6927 12.6989C14.968 11.1678 15.604 9.20393 15.4683 7.21584C15.3326 5.22774 14.4357 3.3685 12.9641 2.02488C11.4924 0.681269 9.55947 -0.0432665 7.56726 0.00200021C5.57505 0.047267 3.67699 0.858851 2.26792 2.26792C0.858851 3.67699 0.047267 5.57505 0.00200021 7.56726C-0.0432665 9.55947 0.681269 11.4924 2.02488 12.9641C3.3685 14.4357 5.22774 15.3326 7.21584 15.4683C9.20393 15.604 11.1678 14.968 12.6989 13.6927L18.0063 19L19 18.0063ZM1.43068 7.75563C1.43068 6.50467 1.80163 5.28181 2.49662 4.24168C3.19162 3.20154 4.17944 2.39086 5.33518 1.91214C6.49091 1.43341 7.76265 1.30816 8.98957 1.55221C10.2165 1.79626 11.3435 2.39865 12.2281 3.28321C13.1126 4.16778 13.715 5.29477 13.9591 6.5217C14.2031 7.74862 14.0779 9.02035 13.5991 10.1761C13.1204 11.3318 12.3097 12.3196 11.2696 13.0146C10.2295 13.7096 9.00659 14.0806 7.75563 14.0806C6.07872 14.0787 4.47102 13.4118 3.28527 12.226C2.09951 11.0402 1.43254 9.43254 1.43068 7.75563Z" fill="#8A8A8A"/>
</svg>
